<?xml version="1.0" encoding="UTF-8"?>
<svg width="39px" height="21px" viewBox="0 0 39 21" version="1.1" xmlns="http://www.w3.org/2000/svg" xmlns:xlink="http://www.w3.org/1999/xlink">
    <!-- Generator: Sketch 52.5 (67469) - http://www.bohemiancoding.com/sketch -->
    <title>Group 25</title>
    <desc>Created with Sketch.</desc>
    <defs>
        <path d="M2.06534043,2.28398936 C0.710297872,3.68342553 -0.0327765957,5.56662766 0.00124468085,7.51704255 C-0.0360957447,9.4575 0.708223404,11.3315745 2.06534043,12.7148298 C3.34404255,14.1175851 5.15837234,14.9062979 7.0527766,14.8826489 L19.0490106,14.8826489 C17.9184255,13.8225957 16.9803511,12.5729362 16.2771064,11.1900957 C15.6456383,9.96408511 15.1000532,8.69451064 14.6445,7.39215957 C14.2615532,6.35990426 13.8242553,5.34839362 13.334266,4.36260638 C12.5339362,2.94781915 11.4157979,1.73964894 10.0694681,0.83393617 C9.10359574,0.350170213 8.06594681,0.115755319 7.03701064,0.115755319 C5.19529787,0.115755319 3.38262766,0.866712766 2.06534043,2.28398936 Z" id="path-1"></path>
        <path d="M2.06534043,2.28398936 C0.710297872,3.68342553 -0.0327765957,5.56662766 0.00124468085,7.51704255 C-0.0360957447,9.4575 0.708223404,11.3315745 2.06534043,12.7148298 C3.34404255,14.1175851 5.15837234,14.9062979 7.0527766,14.8826489 L19.0490106,14.8826489 C17.9184255,13.8225957 16.9803511,12.5729362 16.2771064,11.1900957 C15.6456383,9.96408511 15.1000532,8.69451064 14.6445,7.39215957 C14.2615532,6.35990426 13.8242553,5.34839362 13.334266,4.36260638 C12.5339362,2.94781915 11.4157979,1.73964894 10.0694681,0.83393617 C9.10359574,0.350170213 8.06594681,0.115755319 7.03701064,0.115755319 C5.19529787,0.116170213 3.38221277,0.86712766 2.06534043,2.28398936 Z" id="path-3"></path>
        <path d="M3.52120213,1.4625 C2.04874468,2.37194681 0.846797872,3.66268085 0.0423191489,5.19778723 C1.32185106,6.19602128 2.39310638,7.43779787 3.19509574,8.85175532 C3.74317021,9.91014894 4.21490426,11.0075426 4.60573404,12.1348085 C5.14053191,13.646266 5.80353191,15.1083511 6.58851064,16.5057128 C7.5398617,18.0520213 8.84926596,19.3456596 10.4059468,20.276266 L20.1430851,20.276266 C21.9441383,20.2974255 23.6754894,19.5821489 24.9396702,18.2959787 C21.980234,18.0528511 19.956383,15.7883617 18.8677021,11.5029255 C18.3988723,9.84293617 18.0437234,8.59784043 17.8026702,7.7676383 C17.5060213,6.70219149 17.1077234,5.6678617 16.6131702,4.67917021 C15.7456277,3.25774468 14.5341383,2.07903191 13.0915532,1.25131915 C11.6639043,0.415723404 10.0702979,0 8.47793617,0 C6.75197872,0 5.02809574,0.489159574 3.52120213,1.4625 Z" id="path-5"></path>
        <path d="M3.52120213,1.87739362 C2.04874468,2.78684043 0.846797872,4.07757447 0.0423191489,5.61268085 C1.32185106,6.61091489 2.39310638,7.85269149 3.19509574,9.26664894 C3.74317021,10.3250426 4.21490426,11.4224362 4.60573404,12.5497021 C5.14053191,14.0611596 5.80353191,15.5232447 6.58851064,16.9206064 C7.5398617,18.4669149 8.84926596,19.7605532 10.4059468,20.6911596 L20.1430851,20.6911596 C21.9441383,20.7123191 23.6754894,19.9970426 24.9396702,18.7108723 C21.980234,18.4677447 19.956383,16.2032553 18.8677021,11.9178191 C18.3988723,10.2578298 18.0437234,9.01273404 17.8026702,8.18253191 C17.5060213,7.11708511 17.1077234,6.08275532 16.6131702,5.09406383 C15.7456277,3.6726383 14.5341383,2.49392553 13.0915532,1.66621277 C11.6639043,0.830617021 10.069883,0.414478723 8.47835106,0.414478723 C6.75197872,0.414893617 5.02809574,0.903638298 3.52120213,1.87739362 Z" id="path-7"></path>
        <path d="M1.47287234,0.116170213 C1.05217021,0.110361702 0.632712766,0.151021277 0.221138298,0.236904255 C0.82356383,1.97074468 1.36790426,3.77760638 1.85374468,5.65707447 C2.87064894,9.67614894 4.79658511,11.4867447 7.63030851,11.0888617 C8.22111702,9.97902128 8.52938298,8.74014894 8.5277234,7.4817766 C8.56091489,5.53219149 7.81120213,3.65106383 6.4482766,2.26075532 C5.18617021,0.892021277 3.41291489,0.115755319 1.55709574,0.115755319 C1.52888298,0.115755319 1.50067021,0.115755319 1.47287234,0.116170213 Z" id="path-9"></path>
        <path d="M0.221138298,0.236904255 C0.82356383,1.97074468 1.36790426,3.77760638 1.85374468,5.65707447 C2.87064894,9.67614894 4.79658511,11.4867447 7.63030851,11.0888617 C8.22111702,9.97902128 8.52938298,8.74014894 8.5277234,7.4817766 C8.56091489,5.53219149 7.81120213,3.65106383 6.4482766,2.26075532 C5.18617021,0.892021277 3.41291489,0.115755319 1.55709574,0.115755319 C1.52929787,0.115755319 1.50067021,0.115755319 1.47287234,0.116170213 C1.44714894,0.115755319 1.42184043,0.115755319 1.39653191,0.115755319 C1.00155319,0.115755319 0.607819149,0.156414894 0.221138298,0.236904255 Z" id="path-11"></path>
    </defs>
    <g id="Page-1" stroke="none" stroke-width="1" fill="none" fill-rule="evenodd">
        <g id="方案三：云桌面（导航收起）" transform="translate(-10.000000, -17.000000)">
            <g id="Group-25" transform="translate(10.000000, 17.000000)">
                <path d="M7.0527766,20.6914085 C5.15837234,20.7146426 3.34404255,19.9259298 2.06534043,18.5231745 C0.708223404,17.1399191 -0.0360957447,15.2662596 0.00124468085,13.3258021 C-0.0327765957,11.3749723 0.710297872,9.49177021 2.06534043,8.09274894 C4.11823404,5.88385532 7.37556383,5.2934617 10.0694681,6.64228085 C11.4157979,7.54840851 12.5335213,8.75657872 13.3346809,10.1709511 C13.8242553,11.1571532 14.2615532,12.1682489 14.6445,13.2009191 C15.1000532,14.5032702 15.6456383,15.7724298 16.2771064,16.9988553 C16.9803511,18.3816957 17.9180106,19.6309404 19.0490106,20.6914085 L7.0527766,20.6914085 Z" id="Fill-1" fill="#FFFFFF"></path>
                <g id="Group-5" transform="translate(0.000000, 5.808511)">
                    <mask id="mask-2" fill="white">
                        <use xlink:href="#path-1"></use>
                    </mask>
                    <g id="Clip-4"></g>
                    <polygon id="Fill-3" fill="#FFFFFF" mask="url(#mask-2)" points="-331.085106 387.925532 465.510638 387.925532 465.510638 -60.1595745 -331.085106 -60.1595745"></polygon>
                </g>
                <g id="Group-8" transform="translate(0.000000, 5.808511)">
                    <mask id="mask-4" fill="white">
                        <use xlink:href="#path-3"></use>
                    </mask>
                    <g id="Clip-7"></g>
                    <polygon id="Fill-6" fill="#FFFFFF" mask="url(#mask-4)" points="-2.07446809 16.9575319 21.1234787 16.9575319 21.1234787 -1.95871277 -2.07446809 -1.95871277"></polygon>
                </g>
                <path d="M29.4199819,8.18240745 C29.6610351,9.01260957 30.016184,10.2581202 30.4850138,11.9176947 C31.5732798,16.2035457 33.5971309,18.4676202 36.5569819,18.710333 C35.2923862,19.997333 33.5606202,20.7121947 31.7599819,20.69145 L22.0224287,20.69145 C20.4665777,19.7604287 19.1571734,18.4672053 18.2054074,16.9208968 C17.4208436,15.5235351 16.7574287,14.0610351 16.2226309,12.5495777 C15.8318011,11.4227266 15.360067,10.325333 14.8119926,9.26652447 C14.0104181,7.85256702 12.9391628,6.61079043 11.659216,5.61255638 C12.4641096,4.07703511 13.6656415,2.78713085 15.1380989,1.87726915 C18.0348862,0.00609893617 21.7332479,-0.0752202128 24.7088649,1.66650319 C26.1510351,2.49380106 27.3625245,3.67251383 28.2304819,5.09393936 C28.7246202,6.08263085 29.1229181,7.11696064 29.4199819,8.18240745" id="Fill-9" fill="#FFFFFF"></path>
                <g id="Group-13" transform="translate(11.617021, 0.414894)">
                    <mask id="mask-6" fill="white">
                        <use xlink:href="#path-5"></use>
                    </mask>
                    <g id="Clip-12"></g>
                    <polygon id="Fill-11" fill="#FFFFFF" mask="url(#mask-6)" points="-342.702128 393.319149 453.893617 393.319149 453.893617 -54.7659574 -342.702128 -54.7659574"></polygon>
                </g>
                <g id="Group-16" transform="translate(11.617021, 0.000000)">
                    <mask id="mask-8" fill="white">
                        <use xlink:href="#path-7"></use>
                    </mask>
                    <g id="Clip-15"></g>
                    <polygon id="Fill-14" fill="#FFFFFF" mask="url(#mask-8)" points="-2.03214894 22.7664574 27.0145532 22.7664574 27.0145532 -1.65957447 -2.03214894 -1.65957447"></polygon>
                </g>
                <path d="M30.5082479,6.04553936 C30.9198223,5.95965638 31.3396947,5.91899681 31.7599819,5.92439043 C33.6465032,5.90074149 35.4546096,6.6799117 36.7358011,8.06939043 C38.0987266,9.45969894 38.8480245,11.3408266 38.8152479,13.2904117 C38.8164926,14.548784 38.5082266,15.7872415 37.9174181,16.8974968 C35.0836947,17.2949649 33.1581734,15.4843691 32.1408543,11.4652947 C31.6550138,9.58624149 31.1106734,7.77937979 30.5082479,6.04553936" id="Fill-17" fill="#FFFFFF"></path>
                <g id="Group-21" transform="translate(30.287234, 5.808511)">
                    <mask id="mask-10" fill="white">
                        <use xlink:href="#path-9"></use>
                    </mask>
                    <g id="Clip-20"></g>
                    <polygon id="Fill-19" fill="#FFFFFF" mask="url(#mask-10)" points="-361.37234 387.925532 435.223404 387.925532 435.223404 -60.1595745 -361.37234 -60.1595745"></polygon>
                </g>
                <g id="Group-24" transform="translate(30.287234, 5.808511)">
                    <mask id="mask-12" fill="white">
                        <use xlink:href="#path-11"></use>
                    </mask>
                    <g id="Clip-23"></g>
                    <polygon id="Fill-22" fill="#FFFFFF" mask="url(#mask-12)" points="-1.85332979 13.217266 10.6034362 13.217266 10.6034362 -1.95871277 -1.85332979 -1.95871277"></polygon>
                </g>
            </g>
        </g>
    </g>
</svg>