<?xml version="1.0" encoding="UTF-8"?>
<svg width="366px" height="47px" viewBox="0 0 366 47" version="1.1" xmlns="http://www.w3.org/2000/svg" xmlns:xlink="http://www.w3.org/1999/xlink">
    <!-- Generator: Sketch 60 (88103) - https://sketch.com -->
    <title>编组 2</title>
    <desc>Created with Sketch.</desc>
    <g id="页面-1" stroke="none" stroke-width="1" fill="none" fill-rule="evenodd">
        <g id="Apple-TV" transform="translate(-896.000000, -350.000000)" fill="#FFFFFF">
            <g id="编组-2" transform="translate(896.000000, 350.000000)">
                <path d="M133.101562,13.515625 L133.101562,10.0351562 L101.460938,10.0351562 L101.460938,13.515625 L133.101562,13.515625 Z M135.773438,46.1757812 L131.484375,35.453125 L123.785156,35.453125 L126.28125,41.6054688 L107.753906,42.2734375 L116.121094,26.9101562 L135.84375,26.9101562 L135.84375,23.3945312 L99,23.3945312 L99,26.9101562 L108.492188,26.9101562 L99.9492188,42.5195312 L99.9492188,46.0351562 L127.652344,45.015625 L128.109375,46.1757812 L135.773438,46.1757812 Z M149.90625,46.0351562 L153.703125,17.4882812 L159.996094,17.4882812 L159.996094,41.9921875 L155.074219,41.9921875 L155.074219,43.0820312 C155.941406,43.1992188 156.667969,43.5273438 157.253906,44.0664062 C157.839844,44.6054688 158.179688,45.25 158.273438,46 L158.273438,46 L165.621094,46 L165.621094,13.9726562 L154.160156,13.9726562 L154.6875,10.0351562 L148.851562,10.0351562 L148.289062,13.9726562 L137.320312,13.9726562 L137.320312,17.4882812 L147.832031,17.4882812 L144.035156,46.0351562 L149.90625,46.0351562 Z M174.164062,41.7460938 L173.179688,17.3476562 L167.589844,17.3476562 L168.574219,41.7460938 L174.164062,41.7460938 Z M142.910156,41.7460938 L145.300781,20.5117188 L139.746094,20.5117188 L137.320312,41.7460938 L142.910156,41.7460938 Z M181.722656,32.359375 L190.6875,10.0351562 L183.867188,10.0351562 L174.902344,32.359375 L181.722656,32.359375 Z M213.257812,32.078125 L205.3125,10.0351562 L192.867188,10.0351562 L191.355469,13.5507812 L199.792969,13.5507812 L206.4375,32.078125 L213.257812,32.078125 Z M208.617188,46.0351562 L208.617188,42.4492188 L208.582031,42.4492188 L204.75,32.6757812 L198.457031,32.6757812 L202.394531,42.4492188 L186.820312,42.4492188 L194.765625,22.1289062 L187.945312,22.1289062 L180.070312,42.2382812 L179.964844,46.0351562 L208.617188,46.0351562 Z M227.285156,18.0507812 L226.546875,15.1328125 L231.503906,15.1328125 L231.503906,11.7578125 L221.835938,11.7578125 L222.503906,10.1757812 L216.457031,10.1757812 L214.347656,15.1328125 L220.5,15.1328125 L221.273438,18.0507812 L227.285156,18.0507812 Z M246.128906,18.0507812 L245.390625,15.1328125 L250.3125,15.1328125 L250.3125,11.7578125 L240.679688,11.7578125 L241.347656,10.1757812 L235.300781,10.1757812 L233.226562,15.1328125 L239.378906,15.1328125 L240.082031,18.0507812 L246.128906,18.0507812 Z M220.042969,25.46875 L220.042969,23.6757812 L244.722656,23.6757812 L244.722656,25.46875 L250.769531,25.46875 L250.769531,19.9140625 L235.722656,19.9140625 L235.265625,18.15625 L229.21875,18.15625 L229.675781,19.9140625 L213.996094,19.9140625 L213.996094,25.46875 L220.042969,25.46875 Z M249.117188,46.0703125 L249.117188,36.8945312 L222.679688,36.8945312 L222.679688,35.03125 L243.632812,35.03125 L243.632812,35.3828125 L249.117188,35.3828125 L249.117188,26.4179688 L223.839844,26.4179688 L222.679688,28.1054688 L222.679688,26.4179688 L216.175781,26.4179688 L216.175781,46.0351562 L222.679688,46.0351562 L222.679688,45.5429688 L243.632812,45.5078125 L243.632812,46.0703125 L249.117188,46.0703125 Z M243.632812,31.4804688 L222.679688,31.4804688 L222.679688,29.8632812 L243.632812,29.8632812 L243.632812,31.4804688 Z M243.632812,42.4140625 L222.679688,42.4140625 L222.679688,40.4101562 L243.632812,40.4101562 L243.632812,42.4140625 Z M289.089844,46.0351562 L289.089844,41.7109375 L280.195312,41.7109375 L280.195312,37.703125 L288.175781,37.703125 L288.175781,33.5195312 L280.195312,33.5195312 L280.195312,30.4609375 L284.027344,30.4609375 L284.027344,30.8828125 L289.089844,30.8828125 L289.089844,10.0351562 L272.636719,10.0351562 L271.230469,11.8632812 L271.230469,10.0351562 L266.097656,10.0351562 L266.097656,30.8828125 L271.160156,30.8828125 L271.160156,30.4609375 L274.957031,30.4609375 L274.957031,33.5195312 L266.554688,33.5195312 L266.554688,37.703125 L274.957031,37.703125 L274.957031,41.7109375 L265.324219,41.7109375 L265.324219,46.0351562 L289.089844,46.0351562 Z M252.246094,45.3671875 L264.796875,43.2929688 L264.796875,39.4609375 L261.140625,40.09375 L261.140625,28.1757812 L264.796875,28.1757812 L264.796875,24.3789062 L261.140625,24.3789062 L261.140625,14.4648438 L264.796875,14.4648438 L264.796875,10.6679688 L252.246094,10.6679688 L252.246094,14.4648438 L255.410156,14.4648438 L255.410156,24.3789062 L252.246094,24.3789062 L252.246094,28.1757812 L255.410156,28.1757812 L255.410156,41.0429688 L252.246094,41.6054688 L252.246094,45.3671875 Z M274.957031,18.015625 L271.160156,18.015625 L271.160156,13.8320312 L274.957031,13.8320312 L274.957031,18.015625 Z M284.027344,18.015625 L280.195312,18.015625 L280.195312,13.8320312 L284.027344,13.8320312 L284.027344,18.015625 Z M274.957031,26.3125 L271.160156,26.3125 L271.160156,21.9882812 L274.957031,21.9882812 L274.957031,26.3125 Z M284.027344,26.3125 L280.195312,26.3125 L280.195312,21.9882812 L284.027344,21.9882812 L284.027344,26.3125 Z M312.117188,45.9296875 L312.117188,32.8515625 L327.410156,32.8515625 L327.410156,29.0195313 L312.117188,29.0195313 L312.117188,13.8320312 L326.496094,13.8320312 L326.496094,10.0351562 L311.730469,10.0351562 L311.730469,10 L306.210938,10 L306.210938,10.0351562 L291.480469,10.0351562 L291.480469,13.8320312 L305.824219,13.8320312 L305.824219,29.0195313 L290.566406,29.0195313 L290.566406,32.8515625 L305.824219,32.8515625 L305.824219,45.9296875 L312.117188,45.9296875 Z M302.695312,27.9648438 L299.953125,14.8867188 L294.046875,14.8867188 L296.789062,27.9648438 L302.695312,27.9648438 Z M321.152344,27.9648438 L323.894531,14.8867188 L317.988281,14.8867188 L315.246094,27.9648438 L321.152344,27.9648438 Z M365.730469,26.1367188 L365.730469,22.4101562 L359.296875,12.109375 L353.355469,12.109375 L359.824219,22.4101562 L335.144531,22.4101562 L344.425781,10.0351562 L338.203125,10.0351562 L328.886719,22.4101562 L328.886719,26.1367188 L365.730469,26.1367188 Z M334.476562,46.0351562 L334.476562,44.4882812 L360.175781,44.4882812 L360.175781,46.0351562 L365.730469,46.0351562 L365.730469,27.5078125 L335.988281,27.5078125 L334.476562,29.4414062 L334.476562,27.5078125 L328.921875,27.5078125 L328.921875,46.0351562 L334.476562,46.0351562 Z M360.175781,40.9375 L334.476562,40.9375 L334.476562,31.0585938 L360.175781,31.0585938 L360.175781,40.9375 Z" id="云办公管理平台" fill-rule="nonzero"></path>
                <path d="M15.9206903,45.9988419 C11.6441522,46.0525404 7.54844009,44.2366221 4.66250678,41.0072943 C1.59831395,37.8224684 -0.0814560157,33.5082294 0.0030403365,29.0401487 C-0.0739056312,24.5495905 1.60318787,20.2131436 4.66250678,16.9922047 C9.29647068,11.9061973 16.6494965,10.5470346 22.7300047,13.6525361 C25.7698226,15.7390154 28.2933451,18.520619 30.1009121,21.7772674 C31.2064594,24.0473489 32.1935582,26.3758181 33.0580499,28.7528654 C34.0863258,31.7517163 35.3177988,34.6735353 36.7435036,37.4970513 C38.3309269,40.6809964 40.4480354,43.5578802 43,45.9988419 L15.9206903,45.9988419 L15.9206903,45.9988419 Z M65.947541,17.6211339 C66.4896175,19.5053247 67.2881603,22.3301367 68.3431694,26.0955698 C70.7912568,35.817287 75.3435337,40.9538449 82,41.5052435 C79.156403,44.4239521 75.261346,46.0462805 71.210929,45.9989945 L49.3092896,45.9989945 C45.8095478,43.8871137 42.8644557,40.95291 40.7234973,37.4449449 C38.9587193,34.2750563 37.4668751,30.9573702 36.2644809,27.5286164 C35.3851713,24.9717793 34.3244885,22.4825357 33.0907104,20.0803126 C31.2882932,16.8729472 28.8788188,14.0563973 26,11.7916419 C27.8105602,8.30832383 30.5132196,5.38140824 33.8251366,3.31720598 C40.3399824,-0.927135675 48.6583056,-1.11172981 55.3508197,2.83952379 C58.5953281,4.71645137 61.3197329,7.39074268 63.2721311,10.6151284 C64.3839491,12.8582471 65.2798801,15.2043913 65.947541,17.6211339 L65.947541,17.6211339 Z M68,13.2752694 C68.9412914,13.0804904 69.9011697,12.9885937 70.86254,13.0012159 C75.1767047,12.94691 79.3118052,14.713829 82.2415812,17.8634543 C85.3586451,21.01561 87.0722251,25.2805118 86.9976648,29.7007947 C87.0004068,32.5531303 86.2950184,35.3620283 84.9441035,37.8781956 C78.4633839,38.7799198 74.0599321,34.6750119 71.7337479,25.5634718 C70.6225134,21.3023829 69.3779308,17.2063154 68,13.2752694 L68,13.2752694 Z" id="logo"></path>
            </g>
        </g>
    </g>
</svg>