<?xml version="1.0" standalone="no"?><!DOCTYPE svg PUBLIC "-//W3C//DTD SVG 1.1//EN" "http://www.w3.org/Graphics/SVG/1.1/DTD/svg11.dtd"><svg t="1557220252137" class="icon" style="" viewBox="0 0 1024 1024" version="1.1" xmlns="http://www.w3.org/2000/svg" p-id="2212" xmlns:xlink="http://www.w3.org/1999/xlink" width="35" height="35"><defs><style type="text/css"></style></defs><path d="M534.1 382.8l102.3 255.8H594L567.8 570H454.3l-26.2 68.6h-42.4L488 382.8h46.1z m-22.4 33.7h-1.2L503 439c-0.8 1.7-13.7 34.9-38.7 99.8h93.6c-25-64.9-37.9-98.2-38.7-99.8 0-0.8-0.4-2.5-1.2-5-4.2-10-6.3-15.8-6.3-17.5z" fill="#FFFFFF" p-id="2213"></path><path d="M376.2 188.7l-180.8 9.5-7.5 180.8L65.4 512.7l122.5 133.8 7.5 180.8 180.8 9.4L510 957.2l133.8-120.6 180.8-9.4 7.5-180.8 122.5-133.8L832.1 379l-7.5-180.8-180.8-9.5L510 68.2 376.2 188.7z m0 0" fill="#F5D93C" p-id="2214"></path><path d="M800.7 511.4c0 162-130 291.9-291.9 291.9-162 0-291.9-131.9-291.9-291.9 0-160.1 130-291.9 291.9-291.9 161.9-0.1 291.9 131.8 291.9 291.9z m0 0" fill="#DFB335" p-id="2215"></path><path d="M508.8 283.5L582.1 421l152.7 28.3-107.4 111 20.8 154.4L508.8 647l-139.5 67.8 20.8-154.4-107.3-111.2L435.3 421l73.5-137.5z m0 0" fill="#F5D93C" p-id="2216"></path></svg>