<?xml version="1.0" standalone="no"?><!DOCTYPE svg PUBLIC "-//W3C//DTD SVG 1.1//EN" "http://www.w3.org/Graphics/SVG/1.1/DTD/svg11.dtd"><svg t="1557369018215" class="icon" style="" viewBox="0 0 1024 1024" version="1.1" xmlns="http://www.w3.org/2000/svg" p-id="10464" xmlns:xlink="http://www.w3.org/1999/xlink" width="200" height="200"><defs><style type="text/css"></style></defs><path d="M927.744 512m-79.19 0a79.19 79.19 0 1 0 158.38 0 79.19 79.19 0 1 0-158.38 0Z" fill="#168DE2" p-id="10465"></path><path d="M862.038 161.962c30.958 30.958 30.976 81.17 0 112.128s-81.17 30.976-112.128 0c-30.908-30.908-30.976-80.982-0.17-111.974l0.17-0.17c30.992-30.874 81.134-30.874 112.128 0.016z" fill="#168DE2" p-id="10466"></path><path d="M806.058 806.058m-79.292 0a79.292 79.292 0 1 0 158.584 0 79.292 79.292 0 1 0-158.584 0Z" fill="#168DE2" p-id="10467"></path><path d="M664.406 426.666c-28.604-0.324-51.524-23.79-51.2-52.394 0.324-28.604 23.79-51.524 52.394-51.2 28.604 0.324 51.524 23.79 51.2 52.394-0.324 28.142-23.058 50.876-51.2 51.2h-1.194zM665.6 614.4c30.226-1.946 56.302 20.974 58.248 51.2 1.946 30.226-20.974 56.302-51.2 58.248-30.226 1.946-56.302-20.974-58.248-51.2-1.894-29.422 19.814-55.074 49.152-58.078l0.854 0.854v-1.024h1.194z" fill="#FFCB5A" p-id="10468"></path><path d="M512 96.256m-79.19 0a79.19 79.19 0 1 0 158.38 0 79.19 79.19 0 1 0-158.38 0Z" fill="#168DE2" p-id="10469"></path><path d="M512 927.744m-79.19 0a79.19 79.19 0 1 0 158.38 0 79.19 79.19 0 1 0-158.38 0Z" fill="#168DE2" p-id="10470"></path><path d="M376.662 426.666h-1.194c-27.938-0.324-50.33-23.244-50.006-51.2 0.324-27.938 23.244-50.33 51.2-50.006 27.938 0.324 50.33 23.244 50.006 51.2-0.326 27.478-22.53 49.682-50.006 50.006zM376.662 614.4c28.604 0.324 51.524 23.79 51.2 52.394-0.324 28.604-23.79 51.524-52.394 51.2s-51.524-23.79-51.2-52.394c0.324-28.142 23.058-50.876 51.2-51.2h1.194z" fill="#FFCB5A" p-id="10471"></path><path d="M218.026 218.026m-79.292 0a79.292 79.292 0 1 0 158.584 0 79.292 79.292 0 1 0-158.584 0Z" fill="#168DE2" p-id="10472"></path><path d="M218.026 806.058m-79.292 0a79.292 79.292 0 1 0 158.584 0 79.292 79.292 0 1 0-158.584 0Z" fill="#168DE2" p-id="10473"></path><path d="M96.256 512m-79.19 0a79.19 79.19 0 1 0 158.38 0 79.19 79.19 0 1 0-158.38 0Z" fill="#168DE2" p-id="10474"></path><path d="M665.6 733.866c-37.7-0.836-67.566-32.068-66.748-69.768 0.768-34.986 27.87-63.71 62.754-66.526 0.922-0.154 1.86-0.238 2.8-0.238h1.194c37.7 0 68.266 30.566 68.266 68.266s-30.566 68.266-68.266 68.266z m0.324-102.4a14.492 14.492 0 0 1-1.706 0.154c-17.528 2.048-30.072 17.92-28.024 35.448s17.92 30.072 35.448 28.024c17.528-2.048 30.072-17.92 28.024-35.448-1.98-16.88-16.794-29.252-33.742-28.178z" fill="#FF8030" p-id="10475"></path><path d="M512 192.512c-53.162 0-96.256-43.094-96.256-96.256S458.838 0 512 0s96.256 43.094 96.256 96.256C608.204 149.402 565.146 192.46 512 192.512z m0-158.378c-34.304 0-62.122 27.818-62.122 62.122S477.696 158.378 512 158.378s62.122-27.818 62.122-62.122c-0.034-34.286-27.836-62.088-62.122-62.122zM96.256 608.256C43.094 608.256 0 565.162 0 512s43.094-96.256 96.256-96.256S192.512 458.838 192.512 512c-0.068 53.128-43.128 96.188-96.256 96.256z m0-158.378c-34.304 0-62.122 27.818-62.122 62.122s27.818 62.122 62.122 62.122S158.378 546.304 158.378 512c-0.034-34.286-27.836-62.088-62.122-62.122zM927.744 608.256c-53.162 0-96.256-43.094-96.256-96.256s43.094-96.256 96.256-96.256S1024 458.838 1024 512c-0.068 53.128-43.128 96.188-96.256 96.256z m0-158.378c-34.304 0-62.122 27.818-62.122 62.122s27.818 62.122 62.122 62.122 62.122-27.818 62.122-62.122c-0.034-34.286-27.836-62.088-62.122-62.122zM512 1024c-53.162 0-96.256-43.094-96.256-96.256s43.094-96.256 96.256-96.256 96.256 43.094 96.256 96.256C608.204 980.89 565.146 1023.948 512 1024z m0-158.378c-34.304 0-62.122 27.818-62.122 62.122s27.818 62.122 62.122 62.122 62.122-27.818 62.122-62.122c-0.034-34.286-27.836-62.088-62.122-62.122z" fill="#00448F" p-id="10476"></path><path d="M665.6 443.734c-37.7 0-68.266-30.566-68.266-68.266S627.9 307.2 665.6 307.2s68.266 30.566 68.266 68.266-30.566 68.268-68.266 68.268z m0-102.4c-18.858 0-34.134 15.274-34.134 34.134 0 18.858 15.274 34.134 34.134 34.134s34.134-15.274 34.134-34.134-15.276-34.134-34.134-34.134zM377.07 443.734c-37.7 0.888-68.966-28.946-69.854-66.646-0.888-37.7 28.946-68.966 66.646-69.854s68.966 28.946 69.854 66.646c0.018 0.53 0.018 1.058 0.018 1.588 0.204 37.17-29.508 67.582-66.664 68.266z m-1.604-102.4c-18.858 0-34.134 15.274-34.134 34.134 0 18.858 15.274 34.134 34.134 34.134 18.858 0 34.134-15.274 34.134-34.134s-15.274-34.134-34.134-34.134zM375.466 733.866c-37.7 0-68.266-30.566-68.266-68.266s30.566-68.266 68.266-68.266 68.266 30.566 68.266 68.266-30.566 68.266-68.266 68.266z m0.768-102.4c-18.842-0.426-34.474 14.506-34.884 33.348-0.426 18.842 14.506 34.474 33.348 34.884 18.842 0.41 34.474-14.506 34.884-33.348 0.018-0.238 0.018-0.494 0.018-0.75 0.102-18.602-14.78-33.81-33.366-34.134z" fill="#FF8030" p-id="10477"></path><path d="M359.594 615.424v-188.758l34.134-1.024V614.4zM647.338 615.424v-188.758l34.134-1.024V614.4z" fill="#FF8030" p-id="10478"></path><path d="M652.408 627.558L416.7 386.884l24.37-23.858 234.668 239.616z" fill="#FF8030" p-id="10479"></path><path d="M218.01 314.198c-53.162-0.018-96.256-43.128-96.256-96.29s43.128-96.256 96.29-96.256a96.22 96.22 0 0 1 68.062 28.212c37.614 37.512 37.7 98.39 0.188 136.004a96.188 96.188 0 0 1-68.37 28.262l0.086 0.068z m0-158.242c-34.286 0.12-61.97 28.006-61.85 62.276s28.006 61.97 62.276 61.85c34.27-0.12 61.97-28.006 61.85-62.276a62.016 62.016 0 0 0-18.262-43.758 62.212 62.212 0 0 0-44.014-18.092zM218.01 902.144c-53.112 0.136-96.274-42.82-96.41-95.932a96.132 96.132 0 0 1 28.262-68.334c37.546-37.718 98.56-37.854 136.278-0.324s37.854 98.56 0.324 136.278a96.364 96.364 0 0 1-68.506 28.382l0.052-0.07zM174.08 761.958c-24.32 24.286-24.338 63.676-0.052 87.996 24.286 24.32 63.676 24.338 87.996 0.052s24.338-63.676 0.052-87.996l-0.052-0.052c-24.37-24.064-63.572-24.064-87.944 0zM805.956 314.198c-53.112 0.086-96.238-42.906-96.324-96.018a96.192 96.192 0 0 1 28.058-68.044l0.17-0.17c37.53-37.734 98.526-37.906 136.278-0.392 37.734 37.53 37.906 98.526 0.392 136.278a96.378 96.378 0 0 1-68.54 28.416l-0.034-0.07z m-56.218-152.064l12.134 11.946c-24.286 24.32-24.268 63.71 0.052 87.996s63.71 24.268 87.996-0.052c24.268-24.302 24.268-63.658 0-87.944-24.422-24.116-63.71-24.046-88.064 0.136l-12.118-12.082zM805.956 902.144c-53.162-0.018-96.256-43.128-96.256-96.29 0.018-53.162 43.128-96.256 96.29-96.256a96.22 96.22 0 0 1 68.062 28.212c37.614 37.512 37.7 98.39 0.188 136.004a96.166 96.166 0 0 1-68.454 28.262l0.17 0.068z m0-158.242c-34.286 0.102-61.986 27.99-61.866 62.26 0.12 34.27 27.99 61.986 62.26 61.866 34.27-0.12 61.986-27.99 61.866-62.26a62.066 62.066 0 0 0-18.296-43.81 62.246 62.246 0 0 0-43.964-18.056z" fill="#00448F" p-id="10480"></path><path d="M177.792 743.504l-31.54 13.056-65.74-158.806 31.54-13.056zM439.214 911.98l-13.06 31.534-158.62-65.688 13.058-31.534zM756.514 877.92l-158.644 65.654-13.052-31.54 158.642-65.656zM943.548 597.7l-65.788 158.76-31.53-13.066 65.786-158.76zM943.626 426.32l-31.54 13.054-65.74-158.806 31.54-13.056zM756.168 146.24l-13.082 31.524-158.412-65.74 13.082-31.526zM439.248 112.064L280.604 177.72l-13.052-31.54 158.644-65.656zM177.77 280.576l-65.786 158.76-31.532-13.064 65.788-158.76z" fill="#00448F" p-id="10481"></path></svg>