<?xml version="1.0" standalone="no"?><!DOCTYPE svg PUBLIC "-//W3C//DTD SVG 1.1//EN" "http://www.w3.org/Graphics/SVG/1.1/DTD/svg11.dtd"><svg t="1557380312932" class="icon" style="" viewBox="0 0 1024 1024" version="1.1" xmlns="http://www.w3.org/2000/svg" p-id="35078" xmlns:xlink="http://www.w3.org/1999/xlink" width="200" height="200"><defs><style type="text/css"></style></defs><path d="M870.4 932.608h-143.104a102.4 102.4 0 0 1-102.4-102.4v-111.36h45.824v116.992a51.2 51.2 0 0 0 51.2 51.2h154.88a51.3536 51.3536 0 0 0 51.2-51.2v-157.952a51.2 51.2 0 0 0-51.2-51.2h-115.456v-45.824H870.4a102.4 102.4 0 0 1 102.4 102.4v146.944a102.4 102.4 0 0 1-102.4 102.4z m-44.8-397.312h-64.256v-46.592h69.632a51.0208 51.0208 0 0 0 51.2-51.2v-111.36a51.0208 51.0208 0 0 0-51.2-51.2H721.92a51.0208 51.0208 0 0 0-51.2 51.2v71.168h-45.824v-65.792a102.4 102.4 0 0 1 102.4-102.4h98.304a102.4 102.4 0 0 1 102.4 102.4v101.376a102.4 102.4 0 0 1-102.4 102.4zM426.496 1024H295.424a153.6 153.6 0 0 1-153.6-153.6v-135.936a153.6 153.6 0 0 1 153.6-153.6h131.072a133.76 133.76 0 0 1 17.408 1.792v45.056a91.392 91.392 0 0 0-11.776-1.024H289.024a102.4 102.4 0 0 0-102.4 102.4v146.944a102.528 102.528 0 0 0 102.4 102.4h143.104a102.528 102.528 0 0 0 102.4-102.4v-146.944c0-3.584-0.768-6.912-1.024-10.24h45.056a153.6 153.6 0 0 1 1.536 15.616V870.4a153.6 153.6 0 0 1-153.6 153.6z m108.032-422.912v-20.224h19.968a25.6 25.6 0 0 1 25.6 25.6v20.224h-19.968a25.6 25.6 0 0 1-25.6-25.6z m19.968-65.792h-19.968v-20.992a25.6 25.6 0 0 1 25.6-25.6h19.968v20.992a25.6 25.6 0 0 1-25.6 25.6z m-26.112-137.984a123.264 123.264 0 0 0 6.144-36.608V173.568a128 128 0 0 0-128-128H224a128 128 0 0 0-128 128v187.136a128 128 0 0 0 128 128h182.528a129.8432 129.8432 0 0 0 37.376-6.144v46.848a170.9056 170.9056 0 0 1-43.008 5.888H230.4a179.2 179.2 0 0 1-179.2-179.2V179.2a179.2 179.2 0 0 1 179.2-179.2h170.496a179.2 179.2 0 0 1 179.2 179.2v176.896a168.3968 168.3968 0 0 1-5.376 41.216h-46.336z m142.336 116.992v20.992h-20.224a25.6 25.6 0 0 1-25.6-25.6v-20.992h20.224a25.6 25.6 0 0 1 25.6 25.6z m-20.224 66.56h20.224v20.224a25.6 25.6 0 0 1-25.6 25.6h-20.224v-20.224a25.6 25.6 0 0 1 25.6-25.6z" fill="#59b2f9" p-id="35079"></path></svg>