<?xml version="1.0" standalone="no"?><!DOCTYPE svg PUBLIC "-//W3C//DTD SVG 1.1//EN" "http://www.w3.org/Graphics/SVG/1.1/DTD/svg11.dtd"><svg t="1557372775904" class="icon" style="" viewBox="0 0 1024 1024" version="1.1" xmlns="http://www.w3.org/2000/svg" p-id="30005" xmlns:xlink="http://www.w3.org/1999/xlink" width="200" height="200"><defs><style type="text/css"></style></defs><path d="M3.511039 74.093688A3.510856 3.510856 0 0 0 0.000183 77.567972v412.818139c0 1.938285 1.535999 3.510856 3.510856 3.510855h409.819282a3.510856 3.510856 0 0 0 3.510856-3.510855V77.567972a3.510856 3.510856 0 0 0-3.510856-3.510856H3.511039v0.036572zM753.883342 1.609142a5.119998 5.119998 0 0 0-7.204569-0.219428L462.262875 272.091331a5.119998 5.119998 0 0 0-0.256 7.241141l268.799904 286.500469a5.119998 5.119998 0 0 0 7.167997 0.256l284.45247-270.665047a5.266284 5.266284 0 0 0 0.182857-7.24114L753.883342 1.609142zM3.511039 604.159784a3.510856 3.510856 0 0 0-3.510856 3.510856v412.818138c0 1.974856 1.535999 3.510856 3.510856 3.510856h409.819282a3.510856 3.510856 0 0 0 3.510856-3.510856V607.707212a3.510856 3.510856 0 0 0-3.510856-3.510856H3.511039z m533.942666 0a3.583999 3.583999 0 0 0-3.583999 3.510856v412.818138c0 1.938285 1.572571 3.510856 3.583999 3.510856H947.199845a3.510856 3.510856 0 0 0 3.547427-3.510856V607.707212a3.583999 3.583999 0 0 0-3.547427-3.510856H537.453705z" fill="#1296db" p-id="30006"></path></svg>