<?xml version="1.0" standalone="no"?><!DOCTYPE svg PUBLIC "-//W3C//DTD SVG 1.1//EN" "http://www.w3.org/Graphics/SVG/1.1/DTD/svg11.dtd"><svg t="1557400910234" class="icon" style="" viewBox="0 0 1024 1024" version="1.1" xmlns="http://www.w3.org/2000/svg" p-id="1837" xmlns:xlink="http://www.w3.org/1999/xlink" width="200" height="200"><defs><style type="text/css"></style></defs><path d="M767.46875 392.46781250000004c-66.2746875 0-120 53.7253125-120 120s53.7253125 120 120 120 120-53.7253125 120-120-53.7253125-120-120-120z m-615 150.001875h419.8903125c8.345625 0 15.110624999999999-6.765000000000001 15.110624999999999-15.110624999999999V493.896875c0-6.312187499999999-5.116875-11.4271875-11.428125-11.4271875H149.00656250000003c-6.3721875 0-11.537812500000001 5.1656249999999995-11.537812500000001 11.537812500000001v33.4621875c0 8.2846875 6.7153125000000005 15 15 15z m105-180.001875c66.2746875 0 120-53.7253125 120-120s-53.7253125-120-120-120-120 53.7253125-120 120 53.7253125 120 120 120z m618.4621875-149.998125H448.8940625c-6.3103125 0-11.4271875 5.115-11.4271875 11.4271875v33.4621875c0 8.345625 6.765000000000001 15.110624999999999 15.110624999999999 15.110624999999999H872.46875c8.2846875 0 15-6.7153125000000005 15-15v-33.4621875c0-6.3721875-5.1656249999999995-11.537812500000001-11.537812500000001-11.537812500000001zM257.46875 662.4678125c-66.2746875 0-120 53.7253125-120 120s53.7253125 120 120 120 120-53.7253125 120-120-53.7253125-120-120-120z m618.4621875 90.001875H448.8940625c-6.3103125 0-11.4271875 5.115-11.4271875 11.4271875v33.4621875c0 8.345625 6.765000000000001 15.110624999999999 15.110624999999999 15.110624999999999H872.46875c8.2846875 0 15-6.7153125000000005 15-15v-33.4621875c0-6.3721875-5.1656249999999995-11.537812500000001-11.537812500000001-11.537812500000001z" fill="#1296db" p-id="1838"></path></svg>